# xmcd CD Database Entry
#
# Track frame offsets:
# 150
# 13331
# 27576
# 42924
# 61181
# 77530
# 92310
# 106845
# 123647
# 139089
# 153234
#
# Disc length: 2280 seconds
#
# Revision: 2
# Processed by: cddbd v1.4b42PL1 Copyright (c) Steve Scherf et al.
# Submitted via: tcd 2.0b
#
DISCID=8308e60b
DTITLE=Aaron Tippin - People Like Us
DYEAR=1900
DGENRE=
TTITLE0=Kiss This
TTITLE1=I Love You
TTITLE2=People Like Us
TTITLE3=I'm Still in Love With You
TTITLE4=I'd Be Afraid (of losing you)
TTITLE5=Lost Since You Found Me
TTITLE6=Big Boy Toys
TTITLE7=Man Enough to be her man
TTITLE8=Turn Back Time
TTITLE9=Ready To Dance
TTITLE10=The Best Love We Ever Made
EXTD=\n
EXTT0=
EXTT1=
EXTT2=
EXTT3=
EXTT4=
EXTT5=
EXTT6=
EXTT7=
EXTT8=
EXTT9=
EXTT10=
PLAYORDER=
